<svg width="97" height="106" viewBox="0 0 97 106" fill="none" xmlns="http://www.w3.org/2000/svg">
<g filter="url(#filter0_d_1845_21041)">
<rect x="25" y="21" width="56" height="56" rx="28" fill="#8D72FF" shape-rendering="crispEdges"/>
<path d="M47 50H59C59.5481 50 60 49.5481 60 49C60 48.4519 59.5481 48 59 48H47C46.4519 48 46 48.4519 46 49C46 49.5481 46.4519 50 47 50Z" fill="#FFFFFF" stroke="#FFFFFF" stroke-width="0.5"/>
<path d="M52 55C52 55.5481 52.4519 56 53 56C53.5481 56 54 55.5481 54 55V43C54 42.4519 53.5481 42 53 42C52.4519 42 52 42.4519 52 43V55Z" fill="#FFFFFF" stroke="#FFFFFF" stroke-width="0.5"/>
</g>
<defs>
<filter id="filter0_d_1845_21041" x="0" y="0" width="106" height="106" filterUnits="userSpaceOnUse" color-interpolation-filters="sRGB">
<feFlood flood-opacity="0" result="BackgroundImageFix"/>
<feColorMatrix in="SourceAlpha" type="matrix" values="0 0 0 0 0 0 0 0 0 0 0 0 0 0 0 0 0 0 127 0" result="hardAlpha"/>
<feOffset dy="4"/>
<feGaussianBlur stdDeviation="12.5"/>
<feComposite in2="hardAlpha" operator="out"/>
<feColorMatrix type="matrix" values="0 0 0 0 0 0 0 0 0 0 0 0 0 0 0 0 0 0 0.15 0"/>
<feBlend mode="normal" in2="BackgroundImageFix" result="effect1_dropShadow_1845_21041"/>
<feBlend mode="normal" in="SourceGraphic" in2="effect1_dropShadow_1845_21041" result="shape"/>
</filter>
</defs>
</svg>
