<svg width="40" height="40" viewBox="0 0 40 40" fill="none" xmlns="http://www.w3.org/2000/svg">
<rect width="40" height="40" rx="20" fill="#30DB5B"/>
<path d="M19.25 15.86H10V24.19C10 24.25 10 24.31 10.01 24.36H19.25V15.86Z" fill="#fff"/>
<path d="M15.6904 14.36H19.2504V10H15.7204V14.24C15.7204 14.28 15.7004 14.32 15.6904 14.36Z" fill="#fff"/>
<path d="M14.2199 14.24V10.16C11.9999 10.62 10.5499 12.1 10.1299 14.36H14.2399C14.2299 14.32 14.2199 14.28 14.2199 14.24Z" fill="#fff"/>
<path d="M24.22 10H20.75V14.36H24.22V10Z" fill="#fff"/>
<path d="M25.71 14.36H29.87C29.45 12.08 27.98 10.59 25.72 10.15V14.33C25.72 14.34 25.71 14.35 25.71 14.36Z" fill="#fff"/>
<path d="M25.7197 29.85C27.9097 29.42 29.3497 28.02 29.8197 25.86H25.7197V29.85Z" fill="#fff"/>
<path d="M24.22 25.86H20.75V30H24.22V25.86Z" fill="#fff"/>
<path d="M20.75 24.36H29.99C30 24.31 30 24.25 30 24.19V15.86H20.75V24.36Z" fill="#fff"/>
<path d="M19.2497 25.86H15.7197V30H19.2497V25.86Z" fill="#fff"/>
<path d="M10.1797 25.86C10.6497 28 12.0697 29.4 14.2197 29.84V25.86H10.1797Z" fill="#fff"/>
</svg>
