<svg width="113" height="114" viewBox="0 0 113 114" fill="none" xmlns="http://www.w3.org/2000/svg">
<path d="M78.8966 20.0167L82.1898 5.71545C82.1898 5.08325 82.6239 4.19404 83.168 3.94293C83.4392 3.81359 83.7457 3.78334 84.0362 3.85726L91.8815 5.89565C92.1221 5.95225 92.3409 6.07995 92.5108 6.26279C92.6806 6.44564 92.7939 6.67552 92.8365 6.92371L93.2619 9.08618L103.524 11.745C104.919 11.9813 105.497 13.2989 105.144 14.2856L102.016 26.3505C101.518 27.7419 100.025 28.5011 98.8327 28.1909L80.6937 23.482C79.4522 23.1629 78.6766 21.7685 78.8966 20.0167Z" fill="#E0E0E0"/>
<path d="M78.6863 19.7219L81.5802 7.75744C81.9217 6.84164 82.7059 6.30102 83.4265 6.49009L103.985 11.8342C104.853 12.0617 105.278 13.2434 104.891 14.363L102.286 25.4471C101.6 28.2034 99.971 28.6524 98.7295 28.3334L80.7091 23.651C78.857 23.1695 78.0004 22.0853 78.6863 19.7219Z" fill="#EBEBEB"/>
<path d="M92.3574 20.9684C92.0237 20.968 91.692 20.9162 91.3734 20.8148C90.7383 20.6157 90.1753 20.2288 89.7556 19.7031C89.3358 19.1774 89.0781 18.5365 89.0151 17.8613C88.9521 17.1861 89.0867 16.5071 89.4017 15.9099C89.7167 15.3128 90.198 14.8244 90.7849 14.5065C91.3718 14.1885 92.0378 14.0554 92.6988 14.1238C93.3598 14.1922 93.9861 14.4592 94.4985 14.8909C95.0109 15.3226 95.3864 15.8997 95.5776 16.5492C95.7687 17.1987 95.767 17.8916 95.5725 18.5401C95.361 19.2424 94.9348 19.8571 94.3562 20.2941C93.7776 20.7311 93.0771 20.9674 92.3574 20.9684ZM92.3574 14.3983C91.7883 14.3981 91.2304 14.5591 90.7457 14.8635C90.261 15.1679 89.8686 15.6037 89.6123 16.1223C89.3559 16.6409 89.2457 17.222 89.2938 17.8009C89.3419 18.3797 89.5465 18.9335 89.8847 19.4007C90.223 19.8678 90.6817 20.2299 91.2097 20.4466C91.7377 20.6633 92.3142 20.726 92.8751 20.6279C93.436 20.5298 93.9592 20.2747 94.3864 19.8909C94.8136 19.5072 95.1281 19.0098 95.2947 18.4544C95.4342 17.986 95.4645 17.4908 95.383 17.0083C95.3014 16.5259 95.1105 16.0696 94.8253 15.676C94.5401 15.2823 94.1686 14.9623 93.7406 14.7415C93.3126 14.5207 92.8399 14.4051 92.3603 14.4042L92.3574 14.3983Z" fill="#E0E0E0"/>
<path d="M91.5992 17.2969L92.0246 15.8848L93.0115 16.966L93.9983 18.0502L92.5861 18.381L91.1738 18.7119L91.5992 17.2969Z" fill="#E0E0E0"/>
<path d="M30.7921 94.6588L15.3213 103.194C14.8082 103.477 14.2059 103.54 13.6469 103.37C13.0879 103.2 12.618 102.81 12.3406 102.287L0.764914 80.4255C0.487341 79.9013 0.425 79.2861 0.59159 78.7149C0.75818 78.1438 1.14007 77.6636 1.65334 77.3798L11.4724 71.9706L23.2969 75.7697L31.6893 91.6131C31.8264 91.8732 31.9119 92.1583 31.941 92.4522C31.9701 92.746 31.9423 93.0429 31.8589 93.3257C31.7756 93.6086 31.6385 93.8719 31.4555 94.1006C31.2724 94.3294 31.047 94.5191 30.7921 94.6588Z" fill="#EBEBEB"/>
<path d="M21.3401 86.2944C21.3401 86.2944 21.4674 86.2176 21.6758 86.0374C21.9747 85.7626 22.1897 85.4057 22.2951 85.0093C22.4134 84.5634 22.3808 84.0898 22.2024 83.6652C22.133 83.5086 22.0433 83.3491 21.9536 83.1807L20.7323 80.9207L20.0262 79.6002L19.6529 78.8971C19.5365 78.6542 19.3938 78.4253 19.2275 78.2147C18.8618 77.7847 18.3519 77.5097 17.7979 77.4436C17.5074 77.4048 17.2122 77.4259 16.9297 77.5057C16.6433 77.5965 16.3692 77.7235 16.1137 77.8838L9.02357 81.8158C8.74113 82.0102 8.50767 82.2699 8.34221 82.5738C8.17675 82.8777 8.08399 83.2173 8.07148 83.5647C8.05467 83.9053 8.11922 84.2449 8.25958 84.5544C8.40138 84.8498 8.57791 85.1659 8.73418 85.4702L10.6037 88.9709C10.7512 89.2427 10.893 89.5411 11.0464 89.7833C11.2111 90.0214 11.4219 90.2225 11.6657 90.3741C11.9016 90.5187 12.1636 90.6133 12.436 90.6523C12.7084 90.6914 12.9858 90.6742 13.2516 90.6016C13.5045 90.5191 13.7473 90.4071 13.9751 90.2678L14.6551 89.8956L15.9545 89.1836L19.8815 87.0536L20.961 86.4864L21.2504 86.3417C21.2815 86.3241 21.3145 86.3102 21.3487 86.3003C21.3211 86.3234 21.291 86.3432 21.259 86.3594L20.987 86.5219C20.7323 86.6637 20.3793 86.8675 19.9307 87.1127L16.0326 89.2959L14.7304 90.0315L14.0416 90.4155C13.8042 90.5625 13.5507 90.6805 13.2863 90.767C12.8479 90.8893 12.383 90.8698 11.9559 90.711C11.5289 90.5523 11.1605 90.2622 10.9017 89.8808C10.7252 89.606 10.6123 89.3343 10.4474 89.0536L8.57791 85.5588C8.41875 85.2634 8.2509 84.968 8.09463 84.6312C7.9428 84.2958 7.87232 83.9279 7.88916 83.5588C7.90279 83.1815 8.00346 82.8129 8.18298 82.4828C8.3625 82.1527 8.6158 81.8706 8.92229 81.6593C11.4487 80.2383 13.8419 78.9385 16.0355 77.7302C16.3071 77.5623 16.599 77.4312 16.9037 77.3402C17.2025 77.258 17.5143 77.2369 17.8211 77.2782C18.4134 77.3521 18.9573 77.6492 19.3462 78.1113C19.5199 78.3316 19.6685 78.5715 19.7889 78.8262C19.9134 79.0655 20.0378 79.2989 20.1593 79.5293C20.3986 79.9902 20.6301 80.4323 20.8539 80.8557C21.2967 81.7006 21.696 82.4658 22.0462 83.1393C22.1359 83.3077 22.2198 83.4672 22.2951 83.6356C22.3591 83.7969 22.4038 83.9656 22.4282 84.1378C22.48 84.496 22.4403 84.8618 22.3131 85.1997C22.1858 85.5377 21.9753 85.8364 21.7018 86.0669C21.5919 86.1592 21.4702 86.2357 21.3401 86.2944Z" fill="#FAFAFA"/>
<path d="M22.5284 84.3016C22.4671 84.2921 22.4076 84.2732 22.3519 84.2455L21.8657 84.0505C21.4229 83.8585 20.821 83.6045 20.0917 83.2943L18.8734 82.7625L18.1933 82.4671L17.8374 82.3135C17.7278 82.2696 17.6082 82.2594 17.493 82.2839C17.3748 82.3099 17.2664 82.3703 17.1812 82.4579C17.0959 82.5455 17.0373 82.6564 17.0126 82.7773C16.9663 83.0579 16.92 83.3445 16.8708 83.637C16.7724 84.2278 16.674 84.8186 16.5814 85.4567C16.5351 85.7374 16.4888 86.0121 16.4454 86.2721L16.428 86.3755L16.3296 86.3459L14.7177 85.8969L14.3357 85.7846C14.223 85.7412 14.1032 85.7202 13.9827 85.7226C13.871 85.728 13.7625 85.7623 13.6673 85.8222C13.5721 85.8821 13.4934 85.9658 13.4386 86.0653C13.3876 86.1703 13.3497 86.2815 13.3258 86.3962L13.2303 86.7418C13.1666 86.9693 13.1058 87.1879 13.0451 87.4006C12.9293 87.826 12.8164 88.2189 12.7152 88.5823L12.229 90.278C12.174 90.4582 12.1277 90.6088 12.0872 90.7329C12.0749 90.7875 12.0554 90.8402 12.0293 90.8895C12.03 90.8333 12.0387 90.7776 12.0553 90.7241C12.0843 90.597 12.119 90.4434 12.1624 90.2573C12.2724 89.8289 12.4171 89.2529 12.5965 88.5468C12.6891 88.1835 12.7933 87.7876 12.9033 87.3651C12.9611 87.1485 13.019 86.9269 13.0769 86.7004C13.1087 86.5882 13.1377 86.47 13.1695 86.3548C13.1948 86.2266 13.2366 86.1025 13.2939 85.9855C13.3617 85.8604 13.4593 85.7548 13.5777 85.6784C13.696 85.602 13.8313 85.5572 13.9711 85.5483C14.1111 85.5442 14.2505 85.5672 14.382 85.6163L14.7669 85.7256L16.3731 86.1805L16.2544 86.2544C16.2978 85.9944 16.3441 85.7197 16.3904 85.439L16.6798 83.6222C16.73 83.3268 16.7792 83.0372 16.8274 82.7536C16.8596 82.5985 16.9358 82.4565 17.0464 82.3451C17.157 82.2338 17.2972 82.1581 17.4496 82.1274C17.5961 82.0979 17.7479 82.1123 17.8866 82.1687L18.2425 82.3282L18.9197 82.6237L20.1525 83.1702L21.8889 83.9826L22.3606 84.2101C22.4192 84.2351 22.4754 84.2658 22.5284 84.3016Z" fill="#FAFAFA"/>
<path d="M14.2387 83.3676C14.2387 83.3529 14.3198 83.2997 14.4442 83.1726C14.6162 82.9912 14.7268 82.7582 14.7596 82.5079C14.7829 82.3276 14.762 82.1442 14.6988 81.9741C14.6357 81.804 14.5323 81.6525 14.3979 81.5331C14.2345 81.3933 14.0337 81.3069 13.8216 81.2852C13.6095 81.2635 13.396 81.3075 13.2087 81.4114C13.0214 81.5153 12.869 81.6743 12.7714 81.8677C12.6739 82.0612 12.6356 82.2802 12.6616 82.4961C12.6864 82.6769 12.7546 82.8487 12.8601 82.9961C12.9656 83.1435 13.1052 83.262 13.2664 83.341C13.4887 83.4494 13.7391 83.4825 13.9812 83.4356C14.0706 83.408 14.1614 83.3853 14.2532 83.3676C14.1818 83.436 14.0939 83.4839 13.9985 83.5065C13.7395 83.5888 13.46 83.573 13.2114 83.4622C13.0236 83.3805 12.8591 83.2515 12.7336 83.0871C12.608 82.9228 12.5255 82.7286 12.4937 82.5227C12.4569 82.2687 12.4974 82.0093 12.6098 81.7795C12.7222 81.5498 12.901 81.3609 13.1221 81.2384C13.3432 81.1159 13.5958 81.0657 13.8457 81.0946C14.0957 81.1236 14.3309 81.2302 14.5194 81.4001C14.6711 81.5401 14.7854 81.717 14.8517 81.9144C14.9181 82.1118 14.9342 82.3231 14.8985 82.5286C14.8508 82.8068 14.7071 83.0583 14.4934 83.2376C14.4204 83.3019 14.3329 83.3466 14.2387 83.3676Z" fill="#FAFAFA"/>
<path d="M9.24414 96.4315L28.5927 85.7563L31.8634 91.9338C32.0955 92.3722 32.1475 92.8868 32.008 93.3643C31.8684 93.8418 31.5488 94.2431 31.1193 94.4801L15.0091 103.369C14.5797 103.606 14.0756 103.659 13.6079 103.516C13.1401 103.374 12.7469 103.047 12.5148 102.609L9.24414 96.4315Z" fill="#E0E0E0"/>
<path d="M11.4668 71.9706L14.7253 78.1213C14.8528 78.3628 15.0256 78.5764 15.234 78.7496C15.4424 78.9229 15.6822 79.0525 15.9398 79.131C16.1973 79.2095 16.4675 79.2353 16.7348 79.207C17.0022 79.1787 17.2614 79.0969 17.4977 78.9662L23.2855 75.7697L11.4668 71.9706Z" fill="#EBEBEB"/>
<path d="M15.0918 78.617C15.0918 78.617 15.8066 80.1532 17.7282 79.7248C17.8005 79.7071 17.8728 79.6864 17.9423 79.6628C18.7729 79.3851 24.2308 77.5387 24.17 77.4235L23.3018 75.7691L17.514 78.9685C17.514 78.9685 16.0265 79.7159 15.0918 78.617Z" fill="#E0E0E0"/>
<path d="M19.1051 95.6835L19.7418 95.3319L20.4016 96.5786C20.182 97.0313 19.8287 97.4022 19.3916 97.6391C18.4453 98.162 17.3977 97.8843 16.9086 96.9567C16.4196 96.0291 16.764 94.9863 17.7218 94.4575C17.951 94.3167 18.2076 94.2289 18.4736 94.2003C18.7396 94.1717 19.0085 94.203 19.2614 94.292L19.0386 94.9597C18.882 94.9022 18.7151 94.8798 18.5493 94.8941C18.3835 94.9083 18.2227 94.9589 18.0778 95.0424C17.951 95.1115 17.8389 95.2053 17.7477 95.3186C17.6565 95.4319 17.588 95.5625 17.5462 95.7028C17.5044 95.8431 17.4901 95.9905 17.5041 96.1364C17.5181 96.2824 17.5601 96.4241 17.6278 96.5535C17.6954 96.6829 17.7874 96.7974 17.8984 96.8905C18.0094 96.9836 18.1373 97.0535 18.2747 97.0961C18.4122 97.1388 18.5565 97.1534 18.6995 97.1391C18.8425 97.1248 18.9813 97.0819 19.108 97.0128C19.2986 96.9135 19.4603 96.7648 19.5768 96.5815L19.1051 95.6835Z" fill="#FAFAFA"/>
<path d="M19.6055 93.4913L20.3 93.1072L21.9264 96.1766L21.2318 96.5607L19.6055 93.4913Z" fill="#FAFAFA"/>
<path d="M22.001 92.9004L22.4322 93.7099L23.8242 92.9418L24.1136 93.5119L22.7216 94.283L23.3004 95.3997L22.6029 95.7837L20.9766 92.7143L23.2512 91.4588L23.5406 92.0289L22.001 92.9004Z" fill="#FAFAFA"/>
<path d="M105.167 110.017L94.2313 104.623C93.8695 104.444 93.592 104.126 93.4597 103.738C93.3273 103.35 93.3509 102.925 93.5252 102.555L100.835 87.1105C101.011 86.7412 101.322 86.4579 101.702 86.3228C102.082 86.1876 102.499 86.2117 102.861 86.3897L109.806 89.8077L112.501 98.1001L107.196 109.294C107.109 109.477 106.988 109.641 106.839 109.777C106.691 109.913 106.517 110.017 106.329 110.084C106.14 110.152 105.941 110.18 105.741 110.169C105.542 110.157 105.347 110.106 105.167 110.017Z" fill="#EBEBEB"/>
<path d="M105.939 101.234C105.939 101.234 106.032 101.276 106.214 101.323C106.484 101.384 106.765 101.364 107.024 101.267C107.209 101.195 107.377 101.083 107.516 100.939C107.595 100.858 107.665 100.768 107.724 100.67C107.782 100.567 107.834 100.451 107.889 100.33C108.109 99.8547 108.364 99.3141 108.642 98.7203C108.781 98.4249 108.931 98.1088 109.079 97.7809L109.313 97.2846C109.4 97.119 109.468 96.9435 109.516 96.7617C109.602 96.38 109.548 95.9792 109.362 95.6362C109.271 95.4586 109.146 95.301 108.995 95.1723C108.829 95.0456 108.648 94.9404 108.457 94.8592L103.424 92.3954C103.203 92.3132 102.966 92.2851 102.732 92.3133C102.499 92.3415 102.275 92.4253 102.078 92.5579C101.886 92.687 101.726 92.8612 101.613 93.066C101.505 93.2698 101.407 93.4944 101.303 93.7071C100.895 94.5638 100.504 95.391 100.131 96.1768C100.041 96.3747 99.9341 96.5697 99.8617 96.7676C99.7976 96.9573 99.772 97.1583 99.7865 97.3584C99.8026 97.5519 99.8569 97.74 99.9459 97.9116C100.035 98.0831 100.157 98.2346 100.304 98.357C100.451 98.4689 100.61 98.5622 100.779 98.6347L101.265 98.8769L102.18 99.3319L104.935 100.714L105.681 101.096L105.875 101.199L105.939 101.237C105.914 101.233 105.891 101.224 105.869 101.211L105.67 101.119L104.914 100.762L102.139 99.4146L101.222 98.9685L100.733 98.7292C100.556 98.652 100.39 98.5528 100.238 98.4338C100.078 98.3036 99.9452 98.1412 99.8486 97.9568C99.7521 97.7724 99.6935 97.5698 99.6765 97.3614C99.6563 97.1425 99.6829 96.9218 99.7546 96.7144C99.8328 96.5047 99.934 96.3245 100.024 96.1236C100.394 95.3348 100.785 94.5077 101.181 93.6509C101.286 93.4353 101.378 93.2226 101.494 93.001C101.617 92.7781 101.791 92.5886 102 92.4486C102.211 92.306 102.452 92.2157 102.703 92.1849C102.954 92.1541 103.209 92.1837 103.447 92.2713C105.247 93.1428 106.92 93.9877 108.477 94.7499C108.676 94.8365 108.863 94.9476 109.035 95.0808C109.279 95.2812 109.463 95.5477 109.565 95.8496C109.668 96.1516 109.685 96.4769 109.614 96.7883C109.563 96.9762 109.491 97.1575 109.4 97.3289L109.163 97.8252C109.009 98.1502 108.859 98.4604 108.717 98.7587L107.953 100.372C107.895 100.49 107.843 100.605 107.779 100.714C107.718 100.816 107.644 100.91 107.56 100.992C107.413 101.14 107.236 101.253 107.041 101.323C106.773 101.418 106.483 101.43 106.208 101.358C106.113 101.33 106.022 101.289 105.939 101.234Z" fill="#FAFAFA"/>
<path d="M107.512 101.11C107.495 101.07 107.483 101.029 107.475 100.986C107.449 100.891 107.42 100.773 107.385 100.629C107.31 100.298 107.209 99.8516 107.096 99.3109C107.032 99.0155 106.966 98.7201 106.893 98.3981C106.856 98.2327 106.818 98.0643 106.78 97.89C106.76 97.8043 106.743 97.7157 106.722 97.6271C106.707 97.5664 106.679 97.5097 106.641 97.461C106.602 97.4123 106.554 97.3725 106.499 97.3445C106.444 97.3165 106.384 97.3009 106.323 97.2986C106.261 97.2964 106.2 97.3077 106.144 97.3316L105.614 97.5975L104.494 98.1618L103.993 98.4129L103.93 98.4454L103.907 98.3774L103.499 97.2873L103.406 97.0214C103.384 96.9397 103.348 96.8627 103.299 96.794C103.249 96.7332 103.186 96.6857 103.114 96.6559C103.043 96.626 102.965 96.6146 102.888 96.6226C102.81 96.6355 102.734 96.6583 102.662 96.6906L102.434 96.7762L102 96.9387L101.218 97.2341L100.09 97.6418L99.7858 97.7452C99.7504 97.7595 99.7135 97.7694 99.6758 97.7748C99.6758 97.7748 99.7076 97.7511 99.7771 97.7216L100.066 97.5975L101.178 97.1514L101.953 96.856L102.387 96.6876L102.616 96.599C102.696 96.562 102.781 96.5352 102.868 96.5192C102.964 96.5077 103.062 96.5212 103.152 96.5583C103.242 96.5955 103.321 96.6552 103.383 96.7319C103.44 96.8113 103.483 96.9003 103.51 96.9949L103.606 97.2578C103.736 97.6123 103.869 97.9816 104.005 98.3597L103.918 98.3213L104.419 98.0702L105.539 97.5089L106.074 97.243C106.172 97.1987 106.281 97.1849 106.386 97.2033C106.492 97.2217 106.59 97.2715 106.667 97.3464C106.744 97.4169 106.798 97.5097 106.821 97.6123C106.841 97.7009 106.861 97.7925 106.879 97.8811C106.916 98.0554 106.951 98.2238 106.986 98.3892C107.052 98.7172 107.113 99.0244 107.171 99.305C107.281 99.8516 107.368 100.301 107.434 100.634L107.498 100.995C107.508 101.032 107.513 101.071 107.512 101.11Z" fill="#FAFAFA"/>
<path d="M104.672 95.9939C104.672 95.9939 104.742 96.0116 104.861 96.0294C105.029 96.0569 105.202 96.0268 105.353 95.9437C105.459 95.8846 105.551 95.8 105.619 95.6971C105.687 95.5943 105.729 95.4762 105.743 95.3529C105.756 95.2443 105.745 95.1343 105.712 95.0305C105.678 94.9266 105.623 94.8315 105.55 94.7517C105.477 94.6719 105.387 94.6094 105.288 94.5685C105.189 94.5277 105.082 94.5094 104.975 94.5151C104.868 94.5208 104.764 94.5502 104.669 94.6014C104.575 94.6526 104.492 94.7242 104.427 94.8113C104.363 94.8984 104.317 94.9989 104.295 95.1057C104.272 95.2125 104.273 95.3231 104.296 95.4297C104.326 95.6006 104.409 95.7571 104.534 95.8757C104.623 95.9614 104.687 95.9939 104.681 96.0057C104.675 96.0175 104.609 96.0057 104.502 95.9142C104.353 95.7993 104.25 95.6335 104.212 95.4474C104.181 95.3072 104.185 95.1611 104.224 95.023C104.264 94.8849 104.338 94.7595 104.438 94.6586C104.561 94.5278 104.722 94.44 104.897 94.4078C105.072 94.3755 105.252 94.4005 105.413 94.479C105.573 94.5576 105.705 94.6857 105.79 94.8453C105.875 95.0048 105.908 95.1876 105.885 95.3676C105.869 95.5105 105.818 95.6469 105.737 95.7642C105.655 95.8815 105.546 95.9757 105.419 96.0382C105.251 96.121 105.059 96.1399 104.878 96.0914C104.802 96.0795 104.73 96.0457 104.672 95.9939Z" fill="#FAFAFA"/>
<path d="M95.4844 98.4166L109.151 105.158L107.332 109.002C107.119 109.45 106.741 109.794 106.28 109.958C105.819 110.122 105.313 110.093 104.874 109.876L94.5215 104.769C94.0819 104.553 93.7448 104.166 93.5842 103.696C93.4236 103.225 93.4526 102.709 93.665 102.26L95.4844 98.4166Z" fill="#E0E0E0"/>
<path d="M109.801 89.804L107.744 94.1674C107.581 94.5118 107.559 94.9079 107.682 95.269C107.805 95.63 108.064 95.9265 108.401 96.0935L112.495 98.1112L109.801 89.804Z" fill="#EBEBEB"/>
<path d="M107.624 94.5606C107.471 94.891 107.433 95.2649 107.516 95.6204C107.599 95.976 107.798 96.2919 108.081 96.5162L108.202 96.6137C108.691 96.9741 111.907 99.3493 111.947 99.2725L112.5 98.0908L108.417 96.079C108.417 96.079 107.398 95.5384 107.624 94.5606Z" fill="#E0E0E0"/>
<path d="M99.8902 103.751L100.342 103.973L99.9249 104.859C99.587 104.917 99.24 104.865 98.9323 104.712C98.7766 104.647 98.6356 104.551 98.518 104.428C98.4004 104.306 98.3087 104.16 98.2487 104C98.1887 103.84 98.1617 103.669 98.1692 103.497C98.1768 103.326 98.2188 103.158 98.2926 103.004C98.3664 102.85 98.4705 102.713 98.5984 102.602C98.7263 102.491 98.8753 102.408 99.036 102.358C99.1967 102.308 99.3657 102.292 99.5326 102.312C99.6995 102.332 99.8606 102.386 100.006 102.472C100.176 102.546 100.327 102.658 100.45 102.798C100.573 102.938 100.665 103.104 100.718 103.285L100.261 103.427C100.229 103.313 100.174 103.208 100.099 103.119C100.024 103.03 99.9313 102.958 99.8265 102.91C99.7371 102.863 99.6396 102.835 99.5396 102.828C99.4396 102.82 99.3391 102.833 99.244 102.865C99.1489 102.898 99.061 102.949 98.9856 103.017C98.9102 103.084 98.8486 103.166 98.8046 103.258C98.7606 103.35 98.735 103.45 98.7293 103.552C98.7236 103.655 98.7378 103.757 98.7713 103.853C98.8047 103.95 98.8566 104.039 98.924 104.115C98.9914 104.19 99.0729 104.252 99.1638 104.295C99.2949 104.365 99.4415 104.398 99.5892 104.393L99.8902 103.751Z" fill="#FAFAFA"/>
<path d="M101.281 103.146L101.773 103.388L100.746 105.559L100.254 105.314L101.281 103.146Z" fill="#FAFAFA"/>
<path d="M102.578 104.283L102.309 104.856L103.293 105.34L103.102 105.742L102.118 105.257L101.742 106.049L101.25 105.807L102.277 103.636L103.883 104.427L103.695 104.832L102.578 104.283Z" fill="#FAFAFA"/>
<path d="M28.9468 17.4501L4.68555 23.1406L9.14209 42.9407L33.4034 37.2502L28.9468 17.4501Z" fill="#FAFAFA"/>
<path d="M28.952 17.4502L28.8333 17.4827L28.4947 17.5654L27.178 17.8815L22.2149 19.0632L4.70386 23.1991L4.75306 23.1193C6.08136 29.0277 7.60356 35.7692 9.21547 42.9124L9.12865 42.8563L33.3941 37.1783L33.3478 37.2522L30.1471 22.8859C29.7651 21.1548 29.4642 19.7958 29.2587 18.8682C29.1574 18.4044 29.0793 18.0499 29.0272 17.8077C28.9751 17.5654 28.952 17.4384 28.952 17.4384C28.952 17.4384 28.9809 17.5566 29.0359 17.7929C29.0909 18.0292 29.1748 18.3837 29.279 18.8387C29.4902 19.7634 29.7999 21.1134 30.1963 22.8328L33.4636 37.2374V37.2965H33.4057L9.1547 43.0128L9.08235 43.0306L9.06788 42.9567C7.46176 35.8076 5.94535 29.0513 4.61994 23.1636L4.60547 23.0986L4.66914 23.0839L22.2352 18.9982L27.1925 17.8549L28.5005 17.5595L28.8333 17.4857L28.952 17.4502Z" fill="#E0E0E0"/>
<path d="M28.3663 18.9004L5.80859 24.1914L9.70393 41.4981L32.2617 36.2071L28.3663 18.9004Z" fill="#EBEBEB"/>
<path d="M9.70898 41.497L15.1669 28.8915L21.5624 34.4778L24.0628 30.1027L32.267 36.209L9.70898 41.497Z" fill="#E0E0E0"/>
<path d="M21.8188 25.9432C21.8995 26.3019 21.8742 26.6771 21.7461 27.0212C21.6179 27.3652 21.3927 27.6628 21.0989 27.8762C20.8051 28.0896 20.4559 28.2093 20.0955 28.2201C19.735 28.2309 19.3796 28.1324 19.074 27.937C18.7684 27.7416 18.5265 27.458 18.3787 27.1222C18.231 26.7864 18.1842 26.4134 18.2441 26.0504C18.304 25.6875 18.4681 25.3508 18.7155 25.083C18.9628 24.8151 19.2825 24.6282 19.6339 24.5459C20.1052 24.4354 20.6001 24.5206 21.0098 24.7826C21.4196 25.0447 21.7106 25.4621 21.8188 25.9432Z" fill="#E0E0E0"/>
<path d="M54.6783 0.00424851L17.0957 1.59882L18.3446 32.2723L55.9272 30.6777L54.6783 0.00424851Z" fill="#FAFAFA"/>
<path d="M54.67 0C54.67 0 54.6063 0 54.4877 0L53.961 0.0265878L51.9208 0.127029L44.2259 0.478579L17.0925 1.70162L17.1851 1.59822C17.5613 10.7267 17.9896 21.1934 18.4469 32.2687L18.334 32.1623L55.9173 30.5848L55.8304 30.6793C55.4745 21.4445 55.1764 13.7872 54.9623 8.43127C54.8639 5.75477 54.7857 3.65434 54.7308 2.22746C54.7076 1.51255 54.6873 0.963067 54.6758 0.58493C54.6642 0.206793 54.6613 0.0147707 54.6613 0.0147707C54.6613 0.0147707 54.6758 0.197931 54.6931 0.564251C54.7105 0.930571 54.7365 1.48005 54.7713 2.1861C54.8349 3.62184 54.9275 5.71341 55.0607 8.38991C55.2922 13.7577 55.6192 21.4327 56.0157 30.6941V30.7857H55.923L18.3427 32.3809H18.2327V32.2716C17.7842 21.1963 17.3646 10.7296 16.9941 1.60117V1.50073H17.0925L44.2953 0.395862L51.9671 0.100443L53.9928 0.0265878H54.5108L54.67 0Z" fill="#E0E0E0"/>
<path d="M53.4037 1.99135L18.4609 3.47392L19.5525 30.2837L54.4953 28.8012L53.4037 1.99135Z" fill="#EBEBEB"/>
<path d="M19.5547 30.2837L31.0782 13.0992L39.0654 23.2054L43.9648 17.4152L54.4958 28.8007L19.5547 30.2837Z" fill="#E0E0E0"/>
<path d="M41.7676 10.6031C41.7895 11.1581 41.6497 11.7072 41.3659 12.1812C41.0821 12.6551 40.667 13.0325 40.1732 13.2657C39.6793 13.4989 39.1289 13.5774 38.5913 13.4913C38.0538 13.4053 37.5533 13.1585 37.1531 12.7821C36.7529 12.4058 36.471 11.9168 36.3429 11.3769C36.2149 10.8371 36.2465 10.2706 36.4337 9.74907C36.6209 9.22754 36.9554 8.77437 37.3949 8.44683C37.8343 8.11929 38.359 7.93208 38.9027 7.90885C39.2641 7.89341 39.6251 7.95088 39.9648 8.07797C40.3045 8.20506 40.6163 8.39929 40.8824 8.64953C41.1485 8.89977 41.3637 9.20112 41.5156 9.53633C41.6674 9.87154 41.7531 10.234 41.7676 10.6031Z" fill="#E0E0E0"/>
<path d="M23.7545 104.421L12.9226 57.7186C12.4682 55.7629 13.0788 53.6566 14.575 52.4424C15.3113 51.8299 16.2298 51.4913 17.1795 51.4823L47.1604 50.5192C47.9487 50.5029 48.7245 50.7217 49.3928 51.1489C50.061 51.576 50.5927 52.1929 50.9225 52.9239L53.909 59.2518L91.9553 59.2902C94.7508 59.2902 97.6853 63.2488 97.3525 66.5723L100.608 105.467C100.136 110.158 96.0791 113.689 92.1347 113.689H32.0224C27.9015 113.701 24.4143 110.028 23.7545 104.421Z" fill="#8D72FF"/>
<g opacity="0.3">
<path d="M23.7564 104.422L12.9245 57.7187C12.4702 55.763 13.0808 53.6567 14.5769 52.4425C15.3132 51.83 16.2317 51.4914 17.1815 51.4824L47.1624 50.5193C47.9507 50.503 48.7265 50.7218 49.3947 51.1489C50.063 51.5761 50.5946 52.193 50.9245 52.924L53.911 59.2519L91.9573 59.2903C94.7528 59.2903 97.6872 63.2489 97.3544 66.5724L100.61 105.467C100.138 110.159 96.0811 113.689 92.1367 113.689H32.0243C27.9034 113.701 24.4162 110.029 23.7564 104.422Z" fill="black"/>
</g>
<path d="M24.2751 105.78L21.4102 54.0405L92.3689 52.9445L94.8576 104.799L24.2751 105.78Z" fill="#E0E0E0"/>
<path d="M23.9536 56.1621C23.9463 56.256 23.9123 56.3456 23.8559 56.42C23.7996 56.4945 23.7231 56.5506 23.636 56.5814C23.5489 56.6123 23.4549 56.6166 23.3655 56.5938C23.276 56.571 23.195 56.522 23.1323 56.453C23.0697 56.384 23.0281 56.2978 23.0126 56.205C22.9971 56.1122 23.0085 56.0168 23.0452 55.9305C23.082 55.8442 23.1426 55.7707 23.2196 55.719C23.2966 55.6672 23.3868 55.6395 23.479 55.6392C23.5438 55.6415 23.6076 55.6569 23.6667 55.6844C23.7257 55.712 23.7788 55.7512 23.8229 55.7998C23.867 55.8484 23.9013 55.9055 23.9237 55.9676C23.9461 56.0298 23.9563 56.0959 23.9536 56.1621Z" fill="#EBEBEB"/>
<path d="M25.7836 56.1621C25.7763 56.256 25.7424 56.3456 25.686 56.42C25.6296 56.4945 25.5532 56.5506 25.4661 56.5814C25.379 56.6123 25.285 56.6166 25.1955 56.5938C25.1061 56.571 25.0251 56.522 24.9624 56.453C24.8997 56.384 24.8581 56.2978 24.8427 56.205C24.8272 56.1122 24.8385 56.0168 24.8753 55.9305C24.9121 55.8442 24.9727 55.7707 25.0497 55.719C25.1267 55.6672 25.2168 55.6395 25.309 55.6392C25.3739 55.6415 25.4377 55.6569 25.4967 55.6844C25.5558 55.712 25.6089 55.7512 25.653 55.7998C25.6971 55.8484 25.7314 55.9055 25.7538 55.9676C25.7762 56.0298 25.7864 56.0959 25.7836 56.1621Z" fill="#EBEBEB"/>
<path d="M27.6372 56.1621C27.6299 56.256 27.5959 56.3456 27.5395 56.42C27.4832 56.4945 27.4067 56.5506 27.3196 56.5814C27.2325 56.6123 27.1385 56.6166 27.049 56.5938C26.9596 56.571 26.8786 56.522 26.8159 56.453C26.7533 56.384 26.7116 56.2978 26.6962 56.205C26.6807 56.1122 26.6921 56.0168 26.7288 55.9305C26.7656 55.8442 26.8262 55.7707 26.9032 55.719C26.9802 55.6672 27.0704 55.6395 27.1626 55.6392C27.2933 55.6446 27.4167 55.7027 27.5056 55.8007C27.5946 55.8987 27.6419 56.0286 27.6372 56.1621Z" fill="#EBEBEB"/>
<path d="M49.3835 56.1616L53.6636 82.1289L19.9871 87.2929L15.707 61.3255L49.3835 56.1616Z" fill="#EBEBEB"/>
<path d="M49.3853 56.1616L49.2233 56.1911L48.7515 56.2679L46.9226 56.5633L40.0322 57.6416L15.7233 61.4112L15.7957 61.3137C17.0748 69.0419 18.5362 77.9015 20.0873 87.2781L19.9745 87.1983L53.6538 82.0492L53.5844 82.1408C52.3139 74.3181 51.2692 67.8365 50.5226 63.3019C50.158 61.033 49.8715 59.2546 49.6747 58.0345C49.5792 57.4289 49.5069 56.9651 49.4548 56.6461C49.4027 56.327 49.3853 56.1616 49.3853 56.1616C49.3853 56.1616 49.4171 56.3152 49.4721 56.6254C49.5271 56.9356 49.6052 57.3994 49.7065 57.9961C49.912 59.2103 50.2101 60.9828 50.5921 63.2398C51.3532 67.7834 52.4384 74.2796 53.7464 82.1171L53.7609 82.1939H53.6799L20.0005 87.3874L19.905 87.4022L19.8877 87.3076C18.3452 77.931 16.8896 69.0714 15.6191 61.3403V61.2576H15.706L40.0872 57.5648L46.966 56.5309L48.7805 56.265L49.2435 56.197L49.3853 56.1616Z" fill="#263238"/>
<path d="M20.8864 85.4789L52.1985 80.6783L48.4567 57.9813L17.1445 62.7818L20.8864 85.4789Z" fill="#455A64"/>
<g opacity="0.3">
<path d="M20.8828 85.4788L29.4951 69.6946L37.7225 77.4818L41.5396 72.0579L52.1949 80.6783L20.8828 85.4788Z" fill="black"/>
</g>
<g opacity="0.3">
<path d="M38.8538 66.4861C38.8985 66.8067 38.8799 67.1331 38.7993 67.4463C38.7187 67.7595 38.5776 68.053 38.3843 68.3098C38.191 68.5665 37.9494 68.7813 37.6737 68.9414C37.3981 69.1016 37.0938 69.2039 36.7789 69.2424C36.1415 69.3537 35.4866 69.2072 34.9534 68.8338C34.4201 68.4603 34.0503 67.8895 33.9226 67.2424C33.8775 66.9219 33.8957 66.5956 33.9759 66.2824C34.0562 65.9693 34.197 65.6757 34.3901 65.4189C34.5831 65.1621 34.8245 64.9473 35.1001 64.7871C35.3756 64.6269 35.6798 64.5246 35.9946 64.4861C36.6326 64.3731 37.2885 64.519 37.8226 64.8926C38.3567 65.2662 38.7268 65.838 38.8538 66.4861Z" fill="black"/>
</g>
<path d="M26.3114 108.235L25.3535 57.8928L97.927 57.7362L97.629 107.485L26.3114 108.235Z" fill="#EBEBEB"/>
<path d="M29.5766 59.8632C29.5693 59.957 29.5354 60.0467 29.479 60.1211C29.4226 60.1956 29.3462 60.2517 29.2591 60.2825C29.172 60.3134 29.078 60.3177 28.9885 60.2948C28.899 60.272 28.818 60.2231 28.7554 60.1541C28.6927 60.085 28.6511 59.9989 28.6356 59.9061C28.6202 59.8133 28.6315 59.7179 28.6683 59.6316C28.705 59.5453 28.7656 59.4718 28.8427 59.42C28.9197 59.3683 29.0098 59.3406 29.102 59.3403C29.2328 59.3457 29.3561 59.4037 29.4451 59.5017C29.534 59.5997 29.5813 59.7297 29.5766 59.8632Z" fill="#E0E0E0"/>
<path d="M31.2602 59.8632C31.2529 59.9572 31.2189 60.0469 31.1624 60.1214C31.1058 60.1959 31.0293 60.252 30.942 60.2828C30.8547 60.3135 30.7606 60.3176 30.671 60.2946C30.5815 60.2715 30.5005 60.2223 30.438 60.153C30.3754 60.0837 30.3341 59.9972 30.3189 59.9043C30.3038 59.8113 30.3155 59.7158 30.3527 59.6296C30.3899 59.5433 30.451 59.47 30.5284 59.4186C30.6058 59.3673 30.6962 59.34 30.7885 59.3403C30.8531 59.343 30.9166 59.3586 30.9753 59.3864C31.034 59.4141 31.0868 59.4534 31.1306 59.5019C31.1744 59.5505 31.2084 59.6074 31.2306 59.6694C31.2529 59.7314 31.2629 59.7973 31.2602 59.8632Z" fill="#E0E0E0"/>
<path d="M27.7602 59.8632C27.7529 59.957 27.719 60.0467 27.6626 60.1211C27.6062 60.1956 27.5298 60.2517 27.4427 60.2825C27.3556 60.3134 27.2615 60.3177 27.1721 60.2948C27.0826 60.272 27.0016 60.2231 26.939 60.1541C26.8763 60.085 26.8347 59.9989 26.8192 59.9061C26.8038 59.8133 26.8151 59.7179 26.8519 59.6316C26.8886 59.5453 26.9492 59.4718 27.0263 59.42C27.1033 59.3683 27.1934 59.3406 27.2856 59.3403C27.4164 59.3457 27.5397 59.4037 27.6287 59.5017C27.7176 59.5997 27.7649 59.7297 27.7602 59.8632Z" fill="#E0E0E0"/>
<path d="M28.002 109.464V61.5973L100.277 61.4407L96.3967 110.492L28.002 109.464Z" fill="#FAFAFA"/>
<path d="M24.4897 104.164L28.8132 68.1971C29.1489 65.3847 31.111 63.299 33.4232 63.299H99.442C102.235 63.299 104.402 66.3034 104.072 69.7155L100.6 105.252C99.5867 112.637 96.8057 113.701 92.8613 113.701H31.1688C27.0421 113.701 23.0427 112.643 24.4897 104.164Z" fill="#8D72FF"/>
</svg>
