<svg width="16" height="17" viewBox="0 0 16 17" fill="none" xmlns="http://www.w3.org/2000/svg">
<path d="M9.38945 1.87074L10.7995 4.70983C10.9895 5.10248 11.4995 5.47498 11.9295 5.55552L14.4795 5.97837C16.1095 6.2502 16.4895 7.43819 15.3195 8.62618L13.3295 10.6297C12.9995 10.9619 12.8095 11.6163 12.9195 12.0895L13.4895 14.5661C13.9395 16.5193 12.8995 17.2844 11.1895 16.2575L8.79945 14.8279C8.36945 14.5661 7.64946 14.5661 7.21946 14.8279L4.82945 16.2575C3.11945 17.2744 2.07945 16.5193 2.52945 14.5661L3.09945 12.0895C3.18945 11.6062 2.99945 10.9518 2.66945 10.6196L0.679454 8.61611C-0.490546 7.43819 -0.110546 6.2502 1.51945 5.9683L4.06945 5.54545C4.49945 5.47498 5.00945 5.09241 5.19945 4.69977L6.60945 1.86067C7.37945 0.330374 8.61946 0.330374 9.38945 1.87074Z" fill="#8D72FF"/>
</svg>
