<svg width="40" height="40" viewBox="0 0 40 40" fill="none" xmlns="http://www.w3.org/2000/svg">
<rect width="40" height="40" rx="20" fill="#30DB5B"/>
<path d="M30 18.75C30.41 18.75 30.75 18.41 30.75 18V17C30.75 12.59 29.41 11.25 25 11.25H18.75V13.5C18.75 13.91 18.41 14.25 18 14.25C17.59 14.25 17.25 13.91 17.25 13.5V11.25H15C10.59 11.25 9.25 12.59 9.25 17V17.5C9.25 17.91 9.59 18.25 10 18.25C10.96 18.25 11.75 19.04 11.75 20C11.75 20.96 10.96 21.75 10 21.75C9.59 21.75 9.25 22.09 9.25 22.5V23C9.25 27.41 10.59 28.75 15 28.75H17.25V26.5C17.25 26.09 17.59 25.75 18 25.75C18.41 25.75 18.75 26.09 18.75 26.5V28.75H25C29.41 28.75 30.75 27.41 30.75 23C30.75 22.59 30.41 22.25 30 22.25C29.04 22.25 28.25 21.46 28.25 20.5C28.25 19.54 29.04 18.75 30 18.75ZM18.75 22.17C18.75 22.58 18.41 22.92 18 22.92C17.59 22.92 17.25 22.58 17.25 22.17V17.83C17.25 17.42 17.59 17.08 18 17.08C18.41 17.08 18.75 17.42 18.75 17.83V22.17Z" fill="#fff"/>
</svg>
